<mxfile host="65bd71144e">
    <diagram id="uv4_HoONgHeYMdSgEcBG" name="Page-1">
        <mxGraphModel dx="442" dy="790" grid="1" gridSize="10" guides="1" tooltips="1" connect="1" arrows="1" fold="1" page="1" pageScale="1" pageWidth="1169" pageHeight="827" background="#FFFFFF" math="0" shadow="0">
            <root>
                <mxCell id="0"/>
                <mxCell id="1" parent="0"/>
                <mxCell id="10" value="unpackIncomingDataArray()" style="edgeStyle=none;html=1;labelBackgroundColor=none;fontColor=#000000;strokeColor=#000000;" edge="1" parent="1">
                    <mxGeometry x="0.0042" y="15" relative="1" as="geometry">
                        <mxPoint x="89.83333333333326" y="135" as="sourcePoint"/>
                        <mxPoint x="249.5" y="135" as="targetPoint"/>
                        <mxPoint as="offset"/>
                    </mxGeometry>
                </mxCell>
                <mxCell id="21" value="&lt;font face=&quot;Helvetica&quot;&gt;storePost(dbConn, &lt;b&gt;$this-&amp;gt;postData)&lt;/b&gt;&lt;/font&gt;" style="edgeStyle=none;html=1;labelBackgroundColor=#FFFFFF;fontFamily=Courier New;fontColor=#000000;strokeColor=#000000;" edge="1" parent="1" target="20">
                    <mxGeometry relative="1" as="geometry">
                        <mxPoint x="89.83333333333326" y="440" as="sourcePoint"/>
                        <mxPoint x="569.5" y="440" as="targetPoint"/>
                    </mxGeometry>
                </mxCell>
                <mxCell id="3" value="DBhandler" style="shape=umlLifeline;perimeter=lifelinePerimeter;whiteSpace=wrap;html=1;container=1;collapsible=0;recursiveResize=0;outlineConnect=0;fillColor=#d5e8d4;strokeColor=#000000;fontColor=#000000;" vertex="1" parent="1">
                    <mxGeometry x="40" y="40" width="100" height="760" as="geometry"/>
                </mxCell>
                <mxCell id="8" value="storePost()" style="html=1;verticalAlign=bottom;endArrow=block;labelBackgroundColor=none;fontColor=#000000;strokeColor=#000000;" edge="1" parent="1">
                    <mxGeometry width="80" relative="1" as="geometry">
                        <mxPoint x="10" y="120" as="sourcePoint"/>
                        <mxPoint x="90" y="120" as="targetPoint"/>
                    </mxGeometry>
                </mxCell>
                <mxCell id="12" value="extractColumns()" style="edgeStyle=none;html=1;labelBackgroundColor=none;fontColor=#000000;strokeColor=#000000;" edge="1" parent="1">
                    <mxGeometry x="0.0037" y="15" relative="1" as="geometry">
                        <mxPoint x="249.83333333333326" y="165" as="sourcePoint"/>
                        <mxPoint x="389.5" y="165" as="targetPoint"/>
                        <mxPoint as="offset"/>
                    </mxGeometry>
                </mxCell>
                <mxCell id="13" value="extractValues()" style="edgeStyle=none;html=1;labelBackgroundColor=none;fontColor=#000000;strokeColor=#000000;" edge="1" parent="1" target="11">
                    <mxGeometry x="-0.072" y="15" relative="1" as="geometry">
                        <mxPoint x="249.83333333333326" y="255" as="sourcePoint"/>
                        <mxPoint x="379.5" y="255" as="targetPoint"/>
                        <mxPoint as="offset"/>
                    </mxGeometry>
                </mxCell>
                <mxCell id="9" value="Unpacker" style="shape=umlLifeline;perimeter=lifelinePerimeter;whiteSpace=wrap;html=1;container=1;collapsible=0;recursiveResize=0;outlineConnect=0;fillColor=#d5e8d4;strokeColor=#000000;fontColor=#000000;" vertex="1" parent="1">
                    <mxGeometry x="200" y="40" width="100" height="370" as="geometry"/>
                </mxCell>
                <mxCell id="11" value="Extractor" style="shape=umlLifeline;perimeter=lifelinePerimeter;whiteSpace=wrap;html=1;container=1;collapsible=0;recursiveResize=0;outlineConnect=0;fillColor=#d5e8d4;strokeColor=#000000;fontColor=#000000;" vertex="1" parent="1">
                    <mxGeometry x="340" y="40" width="100" height="370" as="geometry"/>
                </mxCell>
                <mxCell id="14" value="set&lt;b&gt;&lt;font color=&quot;#ff0000&quot;&gt;StringOfColumns&lt;/font&gt;&lt;/b&gt;() to &lt;b&gt;string&lt;/b&gt;&lt;br&gt;&lt;font face=&quot;Courier New&quot;&gt;e.g. &quot;col1, col2, col3&quot;&lt;/font&gt;" style="html=1;verticalAlign=bottom;endArrow=block;labelBackgroundColor=#FFFFFF;fontColor=#000000;strokeColor=#000000;entryX=0.496;entryY=0.435;entryDx=0;entryDy=0;entryPerimeter=0;" edge="1" parent="1" source="11">
                    <mxGeometry width="80" relative="1" as="geometry">
                        <mxPoint x="379.5" y="204.85000000000002" as="sourcePoint"/>
                        <mxPoint x="89.60000000000014" y="204.85000000000002" as="targetPoint"/>
                    </mxGeometry>
                </mxCell>
                <mxCell id="17" value="setStringOfValues() to string&lt;br&gt;&lt;font face=&quot;Courier New&quot;&gt;e.g. &quot;val1, val2, val3&quot;&lt;/font&gt;" style="html=1;verticalAlign=bottom;endArrow=block;labelBackgroundColor=#FFFFFF;fontColor=#000000;strokeColor=#000000;entryX=0.496;entryY=0.435;entryDx=0;entryDy=0;entryPerimeter=0;" edge="1" parent="1" source="11">
                    <mxGeometry width="80" relative="1" as="geometry">
                        <mxPoint x="379.5" y="294.85" as="sourcePoint"/>
                        <mxPoint x="89.60000000000014" y="294.85" as="targetPoint"/>
                    </mxGeometry>
                </mxCell>
                <mxCell id="18" value="extractPostDataAsArray()" style="edgeStyle=none;html=1;labelBackgroundColor=none;fontColor=#000000;strokeColor=#000000;" edge="1" parent="1" target="11">
                    <mxGeometry x="-0.072" y="15" relative="1" as="geometry">
                        <mxPoint x="249.83333333333326" y="355" as="sourcePoint"/>
                        <mxPoint x="379.5" y="355" as="targetPoint"/>
                        <mxPoint as="offset"/>
                    </mxGeometry>
                </mxCell>
                <mxCell id="19" value="set&lt;b&gt;PostData()&lt;/b&gt; to array&lt;br&gt;&lt;font face=&quot;Courier New&quot;&gt;[&quot;col1&quot; =&amp;gt; &quot;val1&quot;, &quot;col2&quot; =&amp;gt; &quot;val2&quot; etc]&lt;/font&gt;" style="html=1;verticalAlign=bottom;endArrow=block;labelBackgroundColor=#FFFFFF;fontColor=#000000;strokeColor=#000000;entryX=0.496;entryY=0.435;entryDx=0;entryDy=0;entryPerimeter=0;" edge="1" parent="1">
                    <mxGeometry width="80" relative="1" as="geometry">
                        <mxPoint x="389.5" y="394.85" as="sourcePoint"/>
                        <mxPoint x="89.60000000000014" y="394.85" as="targetPoint"/>
                    </mxGeometry>
                </mxCell>
                <mxCell id="26" value="makePreparedStatement&lt;br&gt;ForStorePost(&lt;b&gt;$postData&lt;/b&gt;)" style="edgeStyle=none;html=1;labelBackgroundColor=#FFFFFF;fontFamily=Helvetica;fontColor=#000000;strokeColor=#000000;entryX=0.496;entryY=0.554;entryDx=0;entryDy=0;entryPerimeter=0;" edge="1" parent="1" source="20" target="24">
                    <mxGeometry x="-0.0378" y="21" relative="1" as="geometry">
                        <mxPoint x="729.5" y="460" as="targetPoint"/>
                        <mxPoint x="569.8333333333333" y="460" as="sourcePoint"/>
                        <mxPoint as="offset"/>
                    </mxGeometry>
                </mxCell>
                <mxCell id="20" value="StmtHandler/&lt;br&gt;storePost" style="shape=umlLifeline;perimeter=lifelinePerimeter;whiteSpace=wrap;html=1;container=1;collapsible=0;recursiveResize=0;outlineConnect=0;fillColor=#d5e8d4;strokeColor=#000000;fontColor=#000000;" vertex="1" parent="1">
                    <mxGeometry x="460" y="40" width="100" height="760" as="geometry"/>
                </mxCell>
                <mxCell id="39" value="" style="html=1;points=[];perimeter=orthogonalPerimeter;fillColor=#d5e8d4;strokeColor=#000000;fontColor=#000000;labelBackgroundColor=none;" vertex="1" parent="20">
                    <mxGeometry x="44" y="668" width="10" height="12" as="geometry"/>
                </mxCell>
                <mxCell id="40" value="executes stmt" style="edgeStyle=orthogonalEdgeStyle;html=1;align=left;spacingLeft=2;endArrow=block;rounded=0;entryX=1;entryY=0;fillColor=#d5e8d4;strokeColor=#000000;fontColor=#000000;labelBackgroundColor=none;" edge="1" target="39" parent="20">
                    <mxGeometry relative="1" as="geometry">
                        <mxPoint x="49" y="648" as="sourcePoint"/>
                        <Array as="points">
                            <mxPoint x="79" y="648"/>
                        </Array>
                    </mxGeometry>
                </mxCell>
                <mxCell id="28" value="&lt;font style=&quot;font-size: 11px&quot;&gt;get&lt;b&gt;&lt;font style=&quot;font-size: 11px&quot; color=&quot;#ff0000&quot;&gt;StringOfColmns&lt;/font&gt;&lt;/b&gt;()&lt;/font&gt;" style="edgeStyle=none;html=1;labelBackgroundColor=#FFFFFF;fontFamily=Helvetica;fontSize=10;fontColor=#000000;strokeColor=#000000;entryX=0.5;entryY=0.584;entryDx=0;entryDy=0;entryPerimeter=0;" edge="1" parent="1" source="24" target="3">
                    <mxGeometry relative="1" as="geometry">
                        <mxPoint x="550" y="420" as="targetPoint"/>
                    </mxGeometry>
                </mxCell>
                <mxCell id="24" value="StmtHandler/&lt;br&gt;support. methods" style="shape=umlLifeline;perimeter=lifelinePerimeter;whiteSpace=wrap;html=1;container=1;collapsible=0;recursiveResize=0;outlineConnect=0;fillColor=#d5e8d4;strokeColor=#000000;fontColor=#000000;" vertex="1" parent="1">
                    <mxGeometry x="630" y="40" width="100" height="760" as="geometry"/>
                </mxCell>
                <mxCell id="31" value="" style="html=1;points=[];perimeter=orthogonalPerimeter;fillColor=#d5e8d4;strokeColor=#000000;fontColor=#000000;labelBackgroundColor=none;" vertex="1" parent="24">
                    <mxGeometry x="44" y="530" width="10" height="20" as="geometry"/>
                </mxCell>
                <mxCell id="32" value="make &quot;INSERT INTO ... ???&quot;" style="edgeStyle=orthogonalEdgeStyle;html=1;align=left;spacingLeft=2;endArrow=block;rounded=0;entryX=1;entryY=0;fillColor=#d5e8d4;strokeColor=#000000;fontColor=#000000;labelBackgroundColor=none;" edge="1" target="31" parent="24">
                    <mxGeometry relative="1" as="geometry">
                        <mxPoint x="49" y="510" as="sourcePoint"/>
                        <Array as="points">
                            <mxPoint x="79" y="510"/>
                        </Array>
                    </mxGeometry>
                </mxCell>
                <mxCell id="30" value="string with column names sep. by commas" style="html=1;verticalAlign=bottom;endArrow=open;dashed=1;endSize=8;labelBackgroundColor=#FFFFFF;fontFamily=Helvetica;fontSize=11;fontColor=#000000;strokeColor=#000000;entryX=0.507;entryY=0.631;entryDx=0;entryDy=0;entryPerimeter=0;" edge="1" parent="1">
                    <mxGeometry relative="1" as="geometry">
                        <mxPoint x="89.83333333333326" y="509.5600000000002" as="sourcePoint"/>
                        <mxPoint x="680.7" y="509.5600000000002" as="targetPoint"/>
                    </mxGeometry>
                </mxCell>
                <mxCell id="27" value="getStringOfQmarks(sizeof $postData)&lt;br&gt;" style="text;html=1;strokeColor=none;fillColor=none;align=left;verticalAlign=top;whiteSpace=wrap;rounded=0;labelBackgroundColor=none;fontFamily=Helvetica;fontColor=#000000;fontSize=10;" vertex="1" parent="1">
                    <mxGeometry x="690" y="510" width="180" height="30" as="geometry"/>
                </mxCell>
                <mxCell id="33" value="SQL-string with questionmarks." style="html=1;verticalAlign=bottom;endArrow=open;dashed=1;endSize=8;labelBackgroundColor=#FFFFFF;fontFamily=Helvetica;fontSize=11;fontColor=#000000;strokeColor=#000000;" edge="1" parent="1" source="31">
                    <mxGeometry relative="1" as="geometry">
                        <mxPoint x="570" y="660" as="sourcePoint"/>
                        <mxPoint x="510" y="590" as="targetPoint"/>
                    </mxGeometry>
                </mxCell>
                <mxCell id="36" value="&lt;font style=&quot;font-size: 10px&quot;&gt;bindParameters($stmt, $postData)&lt;/font&gt;" style="endArrow=classic;html=1;labelBackgroundColor=#FFFFFF;fontFamily=Helvetica;fontSize=11;fontColor=#000000;strokeColor=#000000;entryX=0.493;entryY=0.814;entryDx=0;entryDy=0;entryPerimeter=0;" edge="1" parent="1" source="20" target="24">
                    <mxGeometry x="-0.0539" y="9" width="50" height="50" relative="1" as="geometry">
                        <mxPoint x="570" y="710" as="sourcePoint"/>
                        <mxPoint x="620" y="660" as="targetPoint"/>
                        <mxPoint as="offset"/>
                    </mxGeometry>
                </mxCell>
                <mxCell id="38" value="Creates string of types &quot;sssi&quot; and&lt;br&gt;list of values (array ) from $postData." style="text;html=1;strokeColor=none;fillColor=none;align=left;verticalAlign=top;whiteSpace=wrap;rounded=0;labelBackgroundColor=none;fontFamily=Helvetica;fontColor=#000000;fontSize=10;" vertex="1" parent="1">
                    <mxGeometry x="694" y="640" width="170" height="30" as="geometry"/>
                </mxCell>
                <mxCell id="41" value="success (bool)" style="html=1;verticalAlign=bottom;endArrow=open;dashed=1;endSize=8;labelBackgroundColor=#FFFFFF;fontFamily=Helvetica;fontSize=11;fontColor=#000000;strokeColor=#000000;exitX=0.267;exitY=1.028;exitDx=0;exitDy=0;exitPerimeter=0;" edge="1" parent="1" source="39" target="3">
                    <mxGeometry relative="1" as="geometry">
                        <mxPoint x="99.83333333333326" y="519.5600000000002" as="sourcePoint"/>
                        <mxPoint x="430" y="750" as="targetPoint"/>
                    </mxGeometry>
                </mxCell>
                <mxCell id="43" value="This is the array from frontend." style="text;html=1;strokeColor=none;fillColor=none;align=left;verticalAlign=top;whiteSpace=wrap;rounded=0;labelBackgroundColor=none;fontFamily=Helvetica;fontColor=#000000;fontSize=10;" vertex="1" parent="1">
                    <mxGeometry x="400" y="330" width="60" height="50" as="geometry"/>
                </mxCell>
            </root>
        </mxGraphModel>
    </diagram>
</mxfile>